# xmcd
# 
# Track frame offsets:
#     150
#     11802
#     25428
#     38890
#     53616
#     64497
#     78451
#     91941
#     105018
#     119167
#     129880
#     140975
#     154287
#     169805
#     181409
#     194931
#     207449
#     218322
#     230126
#     243601
#     254487
#     268399
#     279329
#     291993
#     304496
# 
# Disc length: 4242
# 
# Revision: 1
# Processed by: cddbd v1.5.2PL0 Copyright (c) Steve Scherf et al.
# Submitted via: fre:ac v1.0.17
# 
DISCID=8c109019
DTITLE=Etta James - At Last andThe Second Time Around
DYEAR=1961
DGENRE=Blues
TTITLE0=Anything To Say You're Mine
TTITLE1=My Dearest Darling
TTITLE2=Trust In Me
TTITLE3=A Sunday Kind Of Love
TTITLE4=Tough Mary
TTITLE5=I Just want To Make Love To You
TTITLE6=At Last
TTITLE7=All I Could Do Was Cry
TTITLE8=Stormy Weather
TTITLE9=Girl Of My Dreams
TTITLE10=Don't Cry Baby
TTITLE11=Fool That I Am
TTITLE12=One For My Baby (And One More For The Road)
TTITLE13=In My Diary
TTITLE14=Seven Day Fool
TTITLE15=It's Too Soon To Know
TTITLE16=Dream
TTITLE17=I'll Dry My Tears
TTITLE18=Plum Nuts
TTITLE19=Don't Get Around Much Anymore
TTITLE20=The Wallflower (Dance With Me Mary)
TTITLE21=Good Rockin' Daddy
TTITLE22=Spoonful
TTITLE23=If I Can't Have You
TTITLE24=I Hope You're Satisfied
EXTD=
EXTT0=
EXTT1=
EXTT2=
EXTT3=
EXTT4=
EXTT5=
EXTT6=
EXTT7=
EXTT8=
EXTT9=
EXTT10=
EXTT11=
EXTT12=
EXTT13=
EXTT14=
EXTT15=
EXTT16=
EXTT17=
EXTT18=
EXTT19=
EXTT20=
EXTT21=
EXTT22=
EXTT23=
EXTT24=
PLAYORDER=
